<svg xmlns="http://www.w3.org/2000/svg" viewBox="0 0 24 24"><path d="M12 2.25A9.75 9.75 0 0 0 2.25 12 9.75 9.75 0 0 0 12 21.75 9.75 9.75 0 0 0 21.75 12c-.006-5.382-4.368-9.744-9.75-9.75ZM6.945 18.516a6 6 0 0 1 10.11 0 8.235 8.235 0 0 1-10.11 0ZM9 11.25a3 3 0 1 1 6 0 3 3 0 0 1-6 0Zm9.165 6.226a7.464 7.464 0 0 0-3.381-2.695 4.5 4.5 0 1 0-5.568 0 7.464 7.464 0 0 0-3.381 2.695 8.25 8.25 0 1 1 12.33 0Z" fill="var(--token-0073ae2f-0032-441f-8a2d-71861ef066c4, rgb(33, 33, 33)) /* {&quot;name&quot;:&quot;Grey 4&quot;} */"/></svg>