<svg xmlns="http://www.w3.org/2000/svg" viewBox="0 0 24 24"><path d="m20.515 9.728-7.5-7.076-.01-.01a1.5 1.5 0 0 0-2.018 0l-.011.01-7.491 7.076A1.503 1.503 0 0 0 3 10.833V19.5A1.5 1.5 0 0 0 4.5 21H9a1.5 1.5 0 0 0 1.5-1.5V15h3v4.5A1.5 1.5 0 0 0 15 21h4.5a1.5 1.5 0 0 0 1.5-1.5v-8.667c0-.42-.176-.82-.485-1.105ZM19.5 19.5H15V15a1.5 1.5 0 0 0-1.5-1.5h-3A1.5 1.5 0 0 0 9 15v4.5H4.5v-8.667l.01-.01L12 3.75l7.491 7.072.01.009Z" fill="var(--token-0073ae2f-0032-441f-8a2d-71861ef066c4, rgb(33, 33, 33)) /* {&quot;name&quot;:&quot;Grey 4&quot;} */"/></svg>