<svg xmlns="http://www.w3.org/2000/svg" viewBox="0 0 24 24"><path d="M21.75 3a.75.75 0 0 0-.75-.75c-4.133 0-8.373 4.66-10.728 7.747A5.625 5.625 0 0 0 3 15.375c0 2.895-1.832 4.193-1.919 4.253A.752.752 0 0 0 1.5 21h7.125a5.626 5.626 0 0 0 5.378-7.272C17.091 11.373 21.75 7.133 21.75 3ZM8.625 19.5H3.247c.632-.899 1.253-2.258 1.253-4.125A4.125 4.125 0 1 1 8.625 19.5Zm3.039-8.855c.322-.416.637-.808.946-1.176a7.108 7.108 0 0 1 1.921 1.921c-.369.308-.761.624-1.176.946a5.68 5.68 0 0 0-1.691-1.691Zm4.003-.251a8.664 8.664 0 0 0-2.062-2.062c2.979-3.238 5.227-4.219 6.553-4.492-.267 1.327-1.253 3.575-4.491 6.554Z" fill="var(--token-0073ae2f-0032-441f-8a2d-71861ef066c4, rgb(33, 33, 33)) /* {&quot;name&quot;:&quot;Grey 4&quot;} */"/></svg>